<?xml version="1.0" encoding="UTF-8"?>
<svg width="1080px" height="1238px" viewBox="0 0 1080 1238" version="1.1" xmlns="http://www.w3.org/2000/svg" xmlns:xlink="http://www.w3.org/1999/xlink">
    <!-- Generator: Sketch 51.1 (57501) - http://www.bohemiancoding.com/sketch -->
    <title>Romza Flask</title>
    <desc>Created with Sketch.</desc>
    <defs></defs>
    <g id="Page-1" stroke="none" stroke-width="1" fill="none" fill-rule="evenodd">
        <g id="Romza-Flask" fill="#000000" fill-rule="nonzero">
            <g id="Group" transform="translate(540.900000, 619.100000) scale(-1, 1) rotate(-180.000000) translate(-540.900000, -619.100000) translate(0.900000, 0.100000)">
                <path d="M319.1,1236.8 C313.6,1235 307.6,1228.3 306.2,1222.4 C304.2,1214.2 306,1209.6 315,1199.5 C330.5,1182.1 334.4,1177.4 339.7,1169.5 C346.7,1159 353.3,1144.9 356.6,1133.6 C362.1,1114.5 362.2,1113.3 363.2,1029.6 C365.3,846.9 365.8,774.6 364.7,772.5 C364.1,771.4 290.3,660.7 200.6,526.5 C47.2,297 37.1,281.5 28.6,264.6 C19.5,246.3 14.1,233.1 9.5,217.3 C-11.5,144.9 2.8,78.3 48.1,37.5 C70.5,17.4 100.6,4.8 135.3,1.1 C141.8,0.4 274.2,0.1 538,0.1 C963.7,0.1 940.1,-0.2 963.6,5.3 C983.7,10 1005.4,19.4 1021.6,30.6 C1031.5,37.4 1049.7,56 1056,65.6 C1067.1,82.6 1073.5,99.2 1077.1,120.7 C1081,143.2 1078.9,172.1 1071.6,197.6 C1062.7,228.4 1045.7,261.8 1024.2,290.6 C1020.5,295.6 948,406 863.1,536.1 L708.6,772.6 L708.3,778.6 C706.9,811.9 702.8,1016.5 702.7,1057.1 C702.6,1115.8 702.9,1119.2 709.8,1140.1 C716.6,1160.6 727.1,1177 748.3,1199.9 C755.8,1208 757.6,1212.4 756.9,1220.3 C756.3,1226.1 752.6,1232 747.4,1235.2 L743.6,1237.6 L533.1,1237.8 C380.5,1237.9 321.6,1237.6 319.1,1236.8 Z M690.4,1189.9 C678.7,1171.6 669.9,1152 665.6,1134.6 C661.6,1118.3 660.6,1106 660.6,1074.4 L660.6,1045.2 L650.2,1044.9 C643.3,1044.7 639.7,1045 639.4,1045.7 C639.2,1046.3 639.4,1067.2 640,1092.2 C640.9,1135.6 641.1,1138 643.4,1147.2 C646.3,1158.4 651.4,1169.8 657.2,1178.3 C659.4,1181.6 661,1184.5 660.7,1184.8 C660.4,1185.1 657.1,1183.7 653.4,1181.6 C628.8,1168.1 615.7,1154.2 609.6,1134.8 C605.8,1123 605.2,1116.6 604.5,1079.1 L603.9,1044.6 L583.7,1044.6 C564.5,1044.6 563.4,1044.5 558.7,1042.2 C547,1036.4 543.9,1020.9 552.4,1010.6 C557.9,1003.8 560.9,1003.1 583.9,1003.1 L604.1,1003.1 L604.1,974.9 C604.1,959.3 603.8,924 603.4,896.4 L602.8,846.1 L584.7,846.1 C574.7,846.1 564.8,845.6 562.6,845 C545.6,840.4 542.2,818 556.9,807.6 L561.3,804.6 L582.3,804.3 L603.3,804 L602.6,770.3 C601.9,734.5 602.5,724.3 606.2,709.6 C610.2,693.9 617.4,675.4 627.9,654.5 L634.9,640.5 L632.1,638.9 C630.6,638 628.1,635.2 626.6,632.7 C620.5,622.2 624.1,609.6 635,603.9 C639.6,601.5 641.5,601.1 649,601.1 L657.6,601.1 L667.6,584.9 C673.1,576 685.4,557 694.9,542.7 L712.2,516.8 L655,517.4 C623.5,517.8 555.3,518.1 503.5,518.1 L409.2,518.1 L422,539.4 C465.3,611 487.2,656.2 497.9,695.9 L501.6,709.6 L501.4,758.6 C501.2,805.2 500.3,887.9 498.1,1039.9 C497.1,1104.7 497,1108.6 495,1114.4 C489.9,1130 476.1,1144.2 452.4,1158.4 C440.4,1165.6 415.1,1178.5 414.4,1177.8 C414.2,1177.5 415.5,1175.1 417.4,1172.4 C424.1,1163 429.7,1150.2 432.7,1137.1 C434.9,1127.6 435.9,1073 437,897.3 L437.9,747 L367.6,633.3 L297.3,519.6 L271.3,519.3 L245.3,519.1 L325.6,639.5 C378.7,718.9 406.2,761 406.6,763.4 C407,765.3 406.8,813.6 406.2,870.7 C405.6,927.9 405.1,999.4 405.1,1029.7 C405.1,1091.5 404.2,1109.2 400,1129.6 C396.6,1145.8 386.5,1168.9 375,1186.6 L369.2,1195.6 L432.9,1196.1 C467.9,1196.4 541.3,1196.7 595.8,1196.9 L695.1,1197.1 L690.4,1189.9 Z M662.1,987.9 C662.1,979.5 662.5,958 663.1,940.1 C663.6,922.2 664.3,893.8 664.7,876.9 L665.4,846.1 L651.6,846.1 L637.8,846.1 L638.4,900.9 C638.8,931 639.1,966.3 639.1,979.4 L639.1,1003.1 L650.6,1003.1 L662.1,1003.1 L662.1,987.9 Z M666.2,802.9 C666.2,802.2 666.6,792.4 667,781.1 C667.5,767 668.2,759.8 669.1,758.1 C669.8,756.7 687,730.3 707.2,699.3 L744,643.1 L724.8,643.3 L705.6,643.6 L671.4,699 L637.1,754.5 L637.1,764.1 C637.1,769.4 637.4,780.6 637.8,788.9 L638.4,804.1 L652.3,804.1 C662.6,804.1 666.1,803.8 666.2,802.9 Z M790.1,572.5 C801.4,555.1 814.1,535.5 818.3,529 L826.1,517.1 L804.8,517.1 L783.6,517.2 L757.9,558.9 L732.2,600.6 L747.9,601.1 C756.5,601.4 764.7,602.2 766.1,602.8 C767.5,603.5 768.8,604 769.1,604 C769.4,604 778.8,589.8 790.1,572.5 Z M392.013955,342.409098 L459.117955,342.409098 C465.069985,342.409098 470.49393,341.113111 475.389955,338.521098 C480.285979,335.929085 484.461938,332.42512 487.917955,328.009098 C491.373972,323.593075 494.061945,318.601125 495.981955,313.033098 C497.901965,307.46507 498.861955,301.609128 498.861955,295.465098 C498.861955,289.321067 497.757966,283.417126 495.549955,277.753098 C493.341944,272.089069 490.365974,267.145119 486.621955,262.921098 C482.877936,258.697076 478.46198,255.33711 473.373955,252.841098 C468.28593,250.345085 462.957983,249.097098 457.389955,249.097098 L392.013955,249.097098 L392.013955,342.409098 Z M746.445955,342.737098 L607.341955,171.953098 L744.141955,171.953098 L744.141955,154.097098 L584.013955,154.097098 L584.013955,169.937098 L721.389955,340.721098 L584.301955,340.721098 L584.301955,358.577098 L746.445955,358.577098 L746.445955,342.737098 Z M372.013955,154.097098 L372.013955,358.577098 L458.125955,358.577098 C466.957999,358.577098 475.117918,356.705116 482.605955,352.961098 C490.093992,349.217079 496.525928,344.321128 501.901955,338.273098 C507.277982,332.225067 511.45394,325.361136 514.429955,317.681098 C517.40597,310.001059 518.893955,302.225137 518.893955,294.353098 C518.893955,286.86506 517.789966,279.713132 515.581955,272.897098 C513.373944,266.081063 510.253975,259.937125 506.221955,254.465098 C502.189935,248.99307 497.389983,244.385116 491.821955,240.641098 C486.253927,236.897079 480.01399,234.353104 473.101955,233.009098 L523.501955,154.097098 L500.749955,154.097098 L452.365955,229.553098 L391.885955,229.553098 L391.885955,154.097098 L372.013955,154.097098 Z" id="Shape"></path>
            </g>
        </g>
    </g>
</svg>